<?xml version="1.0" standalone="no"?>
<!DOCTYPE svg PUBLIC "-//W3C//DTD SVG 20010904//EN"
 "http://www.w3.org/TR/2001/REC-SVG-20010904/DTD/svg10.dtd">
<svg version="1.0" xmlns="http://www.w3.org/2000/svg"
 width="296.000000pt" height="296.000000pt" viewBox="0 0 296.000000 296.000000"
 preserveAspectRatio="xMidYMid meet">
<metadata>
Created by potrace 1.11, written by Peter Selinger 2001-2013
</metadata>
<g transform="translate(0.000000,296.000000) scale(0.100000,-0.100000)"
fill="#000000" stroke="none">
<path d="M340 2898 c-196 -30 -344 -210 -335 -410 11 -245 228 -421 468 -378
164 30 305 171 324 327 8 68 8 72 0 132 -16 107 -77 203 -170 264 -89 60 -182
80 -287 65z"/>
<path d="M1488 2904 c-2 -1 -25 -4 -53 -5 -27 -2 -68 -10 -90 -18 -229 -86
-330 -340 -223 -559 l31 -63 -34 -31 c-19 -17 -83 -77 -144 -133 -60 -57 -126
-117 -145 -135 -31 -29 -79 -73 -176 -162 l-30 -28 -65 27 c-86 36 -227 38
-303 4 -151 -67 -244 -197 -250 -350 -9 -184 92 -335 266 -399 44 -16 76 -21
145 -19 77 2 97 6 154 34 72 36 134 90 172 150 88 139 78 329 -25 457 l-31 39
70 66 c187 175 334 310 421 387 l35 32 45 -29 c283 -179 642 34 617 366 -13
182 -149 330 -332 363 -29 5 -54 8 -55 6z"/>
<path d="M2548 2905 c-2 -2 -27 -5 -57 -8 -114 -12 -240 -102 -295 -212 -136
-268 68 -592 365 -580 78 3 116 13 182 48 69 36 136 107 174 185 26 52 28 67
28 167 0 102 -2 114 -29 165 -59 113 -126 173 -232 209 -54 18 -129 32 -136
26z"/>
<path d="M1372 1815 c-238 -66 -359 -329 -256 -555 l25 -54 -40 -36 c-22 -20
-90 -83 -153 -140 -62 -58 -137 -127 -168 -155 -30 -27 -70 -64 -88 -82 l-34
-32 -37 25 c-46 32 -151 64 -207 64 -303 0 -497 -301 -371 -574 25 -53 91
-129 142 -163 65 -44 139 -63 233 -60 77 3 98 7 153 34 111 55 182 138 215
249 24 84 24 117 0 233 -3 12 -19 48 -37 79 l-31 56 51 46 c71 66 236 218 281
260 146 136 140 132 164 116 58 -43 126 -77 174 -87 264 -55 502 145 487 410
-13 257 -257 433 -503 366z"/>
<path d="M2443 1815 c-95 -26 -185 -96 -232 -178 -73 -129 -77 -267 -13 -394
l21 -41 -102 -95 c-56 -52 -115 -107 -132 -122 -16 -15 -77 -71 -134 -124 -57
-53 -107 -96 -110 -96 -3 0 -40 17 -82 38 -165 83 -347 51 -472 -82 -117 -125
-142 -288 -68 -446 100 -213 374 -290 575 -161 178 114 234 344 131 534 l-27
51 28 26 c16 15 71 66 123 113 125 115 194 178 265 244 l59 54 58 -38 c77 -52
134 -67 238 -65 75 2 95 6 152 34 85 42 154 111 193 193 29 60 31 73 31 170 0
98 -2 110 -32 170 -67 136 -189 218 -336 226 -55 3 -100 -1 -134 -11z"/>
<path d="M2456 839 c-134 -32 -262 -159 -291 -289 -48 -210 56 -404 257 -478
88 -33 212 -27 298 14 119 57 209 178 228 304 40 279 -217 513 -492 449z"/>
</g>
</svg>
