<svg xmlns="http://www.w3.org/2000/svg" width="24" height="24" preserveAspectRatio="xMinYMin"><rect id="backgroundrect" width="100%" height="100%" x="0" y="0" fill="none" stroke="none"/><g class="currentLayer" style=""><title>Layer 1</title><path d="M13.285714387893677,10.128285731315612 V15.714285731315613 a1,1 0 0 1 -2,0 V10.128285731315612 L8.749714387893677,12.664285731315612 A1,1 0 1 1 7.335714387893677,11.250285731315612 l4.243,-4.243 a0.997,0.997 0 0 1 1.4140000000000001,0 l4.243,4.243 a1,1 0 1 1 -1.4140000000000001,1.4140000000000001 L13.285714387893677,10.128285731315612 zM12.285714387893677,21.714285731315613 C6.762714387893677,21.714285731315613 2.2857143878936768,17.237285731315612 2.2857143878936768,11.714285731315613 S6.762714387893677,1.7142857313156128 12.285714387893677,1.7142857313156128 s10,4.477 10,10 s-4.477,10 -10,10 zm0,-2 a8,8 0 1 0 0,-16 a8,8 0 0 0 0,16 z" id="svg_1" class="selected" fill="#02a569" fill-opacity="1"/><path style="fill:#02a569;" d="M114.26,436.584L99.023,483h301.953l-15.237-46.416H114.26z M161.629,474.404h-49.592l9.594-29.225h69.223C181.113,454.921,171.371,464.663,161.629,474.404z" id="svg_2"/></g></svg>