<svg id="Warstwa_1" data-name="Warstwa 1" xmlns="http://www.w3.org/2000/svg" viewBox="0 0 558.8457 58.03148">
  <defs>
    <style>
      .cls-1 {
        fill: #1b15ff;
      }

      .cls-1, .cls-4 {
        stroke: #1b15ff;
        stroke-miterlimit: 10;
      }

      .cls-2 {
        fill: #1b1500;
      }

      .cls-3, .cls-4 {
        fill: none;
      }

      .cls-4 {
        stroke-width: 2px;
      }
    </style>
  </defs>
  <title>logo</title>
  <ellipse class="cls-1" cx="52.76509" cy="29.97695" rx="7.83976" ry="7.68964"/>
  <ellipse class="cls-1" cx="8.33976" cy="8.18964" rx="7.83976" ry="7.68964"/>
  <ellipse class="cls-1" cx="30.55242" cy="8.18964" rx="7.83976" ry="7.68964"/>
  <ellipse class="cls-1" cx="52.76509" cy="8.18964" rx="7.83976" ry="7.68964"/>
  <ellipse class="cls-1" cx="8.33976" cy="29.97695" rx="7.83976" ry="7.68964"/>
  <ellipse class="cls-1" cx="30.55242" cy="29.97695" rx="7.83976" ry="7.68964"/>
  <ellipse class="cls-1" cx="8.33976" cy="49.84184" rx="7.83976" ry="7.68964"/>
  <ellipse class="cls-1" cx="30.55242" cy="49.84184" rx="7.83976" ry="7.68964"/>
  <ellipse class="cls-1" cx="52.76509" cy="49.84184" rx="7.83976" ry="7.68964"/>
  <g>
    <path class="cls-2" d="M77.48242,108.48975v-5.3208l3.91943-.83057V76.877l-3.91943-.83057V70.69971H95.2876v5.34668l-4.77588.83057v24.63086h8.98047l.20752-5.26855h6.95605v12.25049Z" transform="translate(-1.5 -59)"/>
    <path class="cls-2" d="M108.47266,108.48975v-5.3208l3.91943-.83057V76.877l-3.91943-.83057V70.69971h16.92285v5.34668l-3.91943.83057v25.46143l3.91943.83057v5.3208Z" transform="translate(-1.5 -59)"/>
    <path class="cls-2" d="M146.0293,109.03467a20.71209,20.71209,0,0,1-9.62891-2.18018,16.06644,16.06644,0,0,1-6.64453-6.31982,19.64989,19.64989,0,0,1-2.41406-10.05762V88.73828A20.3013,20.3013,0,0,1,129.561,79.0957a16.18177,16.18177,0,0,1,6.333-6.56641,19.21131,19.21131,0,0,1,9.772-2.375,26.46683,26.46683,0,0,1,7.51416,1.05127,18.51309,18.51309,0,0,1,6.63135,3.59473V84.5332h-6.61865l-.9082-5.58008a11.6364,11.6364,0,0,0-2.855-1.42773,10.73159,10.73159,0,0,0-3.45215-.519,8.68831,8.68831,0,0,0-6.92969,3.0498q-2.62207,3.0498-2.62158,8.62988v1.791a14.40172,14.40172,0,0,0,1.21973,6.1123,9.78621,9.78621,0,0,0,3.41309,4.11377,8.85771,8.85771,0,0,0,5.07422,1.47949,15.48854,15.48854,0,0,0,3.11475-.32422,21.11917,21.11917,0,0,0,3.0625-.86963l.90869-5.34668h6.644v9.52539a22.65563,22.65563,0,0,1-5.76172,2.7124A25.79216,25.79216,0,0,1,146.0293,109.03467Z" transform="translate(-1.5 -59)"/>
    <path class="cls-2" d="M162.874,108.48975v-5.68408l17.67529-25.12451h-9.52539l-.6748,4.80176h-6.82617l.49316-11.7832h27.979v5.47607l-17.72705,25.35791h11.34229l.72705-4.49023h6.7998l-.75244,11.44629Z" transform="translate(-1.5 -59)"/>
    <path class="cls-2" d="M194.53906,108.48975v-5.3208l3.91943-.83057V76.877l-3.91943-.83057V70.69971h17.10449q7.13745,0,11.13428,2.62109a8.73008,8.73008,0,0,1,3.99707,7.8125,9.11244,9.11244,0,0,1-1.27148,4.78857,7.89437,7.89437,0,0,1-3.91943,3.20557,7.57,7.57,0,0,1,4.93164,2.97168,8.97248,8.97248,0,0,1,1.53125,5.17822q0,5.55469-3.71143,8.3833-3.71191,2.82935-10.77148,2.8291ZM207.56836,86.376h3.68555q6.41089,0,6.41113-4.20459a3.95211,3.95211,0,0,0-1.49268-3.439,7.75578,7.75578,0,0,0-4.52881-1.07715h-4.0752Zm0,15.18359H213.564q5.42432,0,5.4248-4.30811a5.02617,5.02617,0,0,0-1.18115-3.647,5.141,5.141,0,0,0-3.80225-1.20654h-6.437Z" transform="translate(-1.5 -59)"/>
    <path class="cls-2" d="M239,108.48975v-5.3208l3.91895-.83057V96.03125L231.96582,76.59131l-3.94482-.54492V70.69971h16.35156v5.34668l-2.33594.415,5.19092,10.356.59668,1.32373h.23389l.623-1.24561,6.07324-10.43408-3.94531-.415V70.69971h16.04053v5.34668l-3.99707.54492L252.00342,95.30469v7.03369l3.94482.83057v5.3208Z" transform="translate(-1.5 -59)"/>
    <path class="cls-2" d="M281.40967,108.48975v-5.3208l3.91943-.83057V76.877l-3.91943-.83057V70.69971h18.376a18.05616,18.05616,0,0,1,7.83838,1.583,12.09839,12.09839,0,0,1,5.126,4.39941,11.94153,11.94153,0,0,1-5.126,17.45459,18.31071,18.31071,0,0,1-7.83838,1.55713H294.439v6.64453l3.91943.83057v5.3208ZM294.439,88.71191h5.34668a5.54476,5.54476,0,0,0,4.21826-1.51807,5.44485,5.44485,0,0,0,1.43945-3.90625,5.78618,5.78618,0,0,0-1.43945-4.04883,5.41846,5.41846,0,0,0-4.21826-1.5835H294.439Z" transform="translate(-1.5 -59)"/>
    <path class="cls-2" d="M316.24023,108.48975v-5.3208l3.91895-.83057V76.877l-3.91895-.83057V70.69971h16.92285v5.34668l-3.91895.83057v25.46143l3.91895.83057v5.3208Z" transform="translate(-1.5 -59)"/>
    <path class="cls-2" d="M335.23926,108.48975v-5.3208l3.91895-.83057V76.877l-3.91895-.83057V70.69971H365.4248V81.60059h-6.87793l-.208-3.89307H348.26855v7.76025h12.06934v6.98193H348.26855v9.00635H358.832l.208-4.0752h6.7998v11.10889Z" transform="translate(-1.5 -59)"/>
    <path class="cls-2" d="M369.21387,108.48975v-5.3208l3.91895-.83057V76.877l-3.91895-.83057v-5.373h18.584a19.48622,19.48622,0,0,1,7.78613,1.42773,11.47723,11.47723,0,0,1,5.08691,4.062,10.83072,10.83072,0,0,1,1.791,6.24219,11.31834,11.31834,0,0,1-1.57031,5.7876,12.99714,12.99714,0,0,1-4.26953,4.43848l3.94531,9.65527,3.582.9082v5.29492H393.14453l-4.69824-13.62646-6.20312-.07764v7.55273l3.91895.83057v5.3208Zm13.0293-20.686h5.6582a6.05219,6.05219,0,0,0,4.0752-1.23291A4.45969,4.45969,0,0,0,393.4043,83.002a5.274,5.274,0,0,0-1.4541-3.88037,5.5915,5.5915,0,0,0-4.15234-1.46631h-5.55469Z" transform="translate(-1.5 -59)"/>
    <path class="cls-2" d="M418.373,108.48975l-8.7207-32.0542-4.2832-.38916V70.69971h17.05273v5.34668l-4.20508.59668,4.127,16.89648.59766,2.43994h.15527l.623-2.46582,7.39746-22.814h6.28027l7.78711,23.87842.54492,1.63477h.15527l.44141-1.63477,4.41211-17.93506-4.334-.59668V70.69971h16.71484v5.34668l-4.02344.38916-9.10937,32.0542h-8.124L435.34766,88.9458l-.80469-2.69922h-.15625l-1.01172,2.855-6.61914,19.38818Z" transform="translate(-1.5 -59)"/>
    <path class="cls-2" d="M480.97559,109.03467a34.44944,34.44944,0,0,1-8.20117-.88232,21.906,21.906,0,0,1-7.1377-3.32227V95.019h7.0332l.7793,5.03516a6.37508,6.37508,0,0,0,2.93262,1.57031,15.79311,15.79311,0,0,0,4.59375.63623q5.269,0,5.26855-3.68555a3.738,3.738,0,0,0-1.29687-2.86816,15.12626,15.12626,0,0,0-4.5166-2.42676,52.80691,52.80691,0,0,1-7.96777-3.1665,12.32051,12.32051,0,0,1-4.63281-3.81543,9.43022,9.43022,0,0,1-1.51855-5.47656,8.79644,8.79644,0,0,1,1.791-5.48926,11.98543,11.98543,0,0,1,4.93066-3.69873,19.00668,19.00668,0,0,1,7.18945-1.42725,27.33,27.33,0,0,1,8.17578.92139,18.87581,18.87581,0,0,1,6.28125,3.10156v9.10986h-6.748l-1.06445-5.061a11.37,11.37,0,0,0-2.51758-.80469,16.00148,16.00148,0,0,0-3.47754-.36328,7.5068,7.5068,0,0,0-3.91895.93457,3.05712,3.05712,0,0,0-1.55762,2.80273,2.91555,2.91555,0,0,0,.59668,1.8042,6.28391,6.28391,0,0,0,2.10254,1.583,41.053,41.053,0,0,0,4.20508,1.83008,26.70231,26.70231,0,0,1,9.77148,4.73633,9.61612,9.61612,0,0,1,3.335,7.72168,9.03394,9.03394,0,0,1-1.81641,5.69727,11.26323,11.26323,0,0,1-5.06152,3.58154A21.20738,21.20738,0,0,1,480.97559,109.03467Z" transform="translate(-1.5 -59)"/>
    <path class="cls-2" d="M498.08008,108.48975v-5.68408l17.6748-25.12451h-9.52539l-.6748,4.80176h-6.82617l.49316-11.7832h27.97949v5.47607l-17.72656,25.35791h11.3418l.72656-4.49023h6.80078l-.75293,11.44629Z" transform="translate(-1.5 -59)"/>
    <path class="cls-2" d="M529.74512,108.48975v-5.3208l3.91895-.83057V76.877l-3.91895-.83057V70.69971h30.18555V81.60059h-6.87793l-.208-3.89307H542.77441v7.76025h12.06934v6.98193H542.77441v9.00635h10.56348l.208-4.0752h6.7998v11.10889Z" transform="translate(-1.5 -59)"/>
  </g>
  <line class="cls-3" x1="30.21851" y1="49.92728" x2="52.61507" y2="29.64942"/>
  <line class="cls-4" x1="30.64921" y1="49.50483" x2="52.18436" y2="30.07188"/>
  <line class="cls-4" x1="8.25265" y1="49.50483" x2="30.64921" y2="29.22697"/>
  <line class="cls-4" x1="7.39125" y1="29.22697" x2="30.64921" y2="8.1042"/>
</svg>
